<mxfile host="app.diagrams.net" modified="2022-12-24T21:27:07.208Z" agent="5.0 (Macintosh; Intel Mac OS X 10_15_7) AppleWebKit/537.36 (KHTML, like Gecko) Chrome/108.0.0.0 Safari/537.36" version="20.7.4" etag="f1LVw3Xrd3I12Tul-4Hi" type="github">
  <diagram id="u1Ip4y3ZxudNnX7hqHtx" name="Page-1">
    <mxGraphModel dx="714" dy="479" grid="1" gridSize="10" guides="1" tooltips="1" connect="1" arrows="1" fold="1" page="1" pageScale="1" pageWidth="827" pageHeight="1169" math="0" shadow="0">
      <root>
        <mxCell id="0" />
        <mxCell id="1" parent="0" />
        <mxCell id="kacVF6ODEAaboOuCy7be-1" value="" style="edgeStyle=orthogonalEdgeStyle;rounded=0;orthogonalLoop=1;jettySize=auto;html=1;" edge="1" parent="1" source="kacVF6ODEAaboOuCy7be-2" target="kacVF6ODEAaboOuCy7be-5">
          <mxGeometry relative="1" as="geometry" />
        </mxCell>
        <mxCell id="kacVF6ODEAaboOuCy7be-2" value="Start" style="rounded=1;whiteSpace=wrap;html=1;" vertex="1" parent="1">
          <mxGeometry x="310" y="130" width="120" height="30" as="geometry" />
        </mxCell>
        <mxCell id="kacVF6ODEAaboOuCy7be-3" value="" style="edgeStyle=orthogonalEdgeStyle;rounded=0;orthogonalLoop=1;jettySize=auto;html=1;" edge="1" parent="1" source="kacVF6ODEAaboOuCy7be-5" target="kacVF6ODEAaboOuCy7be-7">
          <mxGeometry relative="1" as="geometry" />
        </mxCell>
        <mxCell id="kacVF6ODEAaboOuCy7be-4" style="edgeStyle=orthogonalEdgeStyle;rounded=0;orthogonalLoop=1;jettySize=auto;html=1;exitX=0.5;exitY=0;exitDx=0;exitDy=0;" edge="1" parent="1" source="kacVF6ODEAaboOuCy7be-5">
          <mxGeometry relative="1" as="geometry">
            <mxPoint x="370" y="220" as="targetPoint" />
          </mxGeometry>
        </mxCell>
        <mxCell id="kacVF6ODEAaboOuCy7be-5" value="Input N" style="shape=parallelogram;perimeter=parallelogramPerimeter;whiteSpace=wrap;html=1;fixedSize=1;" vertex="1" parent="1">
          <mxGeometry x="310" y="200" width="120" height="30" as="geometry" />
        </mxCell>
        <mxCell id="kacVF6ODEAaboOuCy7be-6" value="" style="edgeStyle=orthogonalEdgeStyle;rounded=0;orthogonalLoop=1;jettySize=auto;html=1;" edge="1" parent="1" source="kacVF6ODEAaboOuCy7be-7" target="kacVF6ODEAaboOuCy7be-9">
          <mxGeometry relative="1" as="geometry" />
        </mxCell>
        <mxCell id="kacVF6ODEAaboOuCy7be-7" value="Input array" style="shape=parallelogram;perimeter=parallelogramPerimeter;whiteSpace=wrap;html=1;fixedSize=1;" vertex="1" parent="1">
          <mxGeometry x="310" y="260" width="120" height="40" as="geometry" />
        </mxCell>
        <mxCell id="kacVF6ODEAaboOuCy7be-8" value="" style="edgeStyle=orthogonalEdgeStyle;rounded=0;orthogonalLoop=1;jettySize=auto;html=1;" edge="1" parent="1" source="kacVF6ODEAaboOuCy7be-9" target="kacVF6ODEAaboOuCy7be-12">
          <mxGeometry relative="1" as="geometry" />
        </mxCell>
        <mxCell id="kacVF6ODEAaboOuCy7be-9" value="count = 0" style="rounded=0;whiteSpace=wrap;html=1;" vertex="1" parent="1">
          <mxGeometry x="310" y="330" width="120" height="40" as="geometry" />
        </mxCell>
        <mxCell id="kacVF6ODEAaboOuCy7be-10" value="" style="edgeStyle=orthogonalEdgeStyle;rounded=0;orthogonalLoop=1;jettySize=auto;html=1;" edge="1" parent="1" source="kacVF6ODEAaboOuCy7be-12" target="kacVF6ODEAaboOuCy7be-15">
          <mxGeometry relative="1" as="geometry" />
        </mxCell>
        <mxCell id="kacVF6ODEAaboOuCy7be-11" value="" style="edgeStyle=orthogonalEdgeStyle;rounded=0;orthogonalLoop=1;jettySize=auto;html=1;" edge="1" parent="1" source="kacVF6ODEAaboOuCy7be-12" target="kacVF6ODEAaboOuCy7be-21">
          <mxGeometry relative="1" as="geometry" />
        </mxCell>
        <mxCell id="kacVF6ODEAaboOuCy7be-12" value="i = 0; N - 1; 1" style="shape=hexagon;perimeter=hexagonPerimeter2;whiteSpace=wrap;html=1;fixedSize=1;" vertex="1" parent="1">
          <mxGeometry x="310" y="410" width="120" height="40" as="geometry" />
        </mxCell>
        <mxCell id="kacVF6ODEAaboOuCy7be-13" value="" style="edgeStyle=orthogonalEdgeStyle;rounded=0;orthogonalLoop=1;jettySize=auto;html=1;" edge="1" parent="1" source="kacVF6ODEAaboOuCy7be-15" target="kacVF6ODEAaboOuCy7be-17">
          <mxGeometry relative="1" as="geometry" />
        </mxCell>
        <mxCell id="kacVF6ODEAaboOuCy7be-14" style="edgeStyle=orthogonalEdgeStyle;rounded=0;orthogonalLoop=1;jettySize=auto;html=1;exitX=1;exitY=0.5;exitDx=0;exitDy=0;" edge="1" parent="1" source="kacVF6ODEAaboOuCy7be-15">
          <mxGeometry relative="1" as="geometry">
            <mxPoint x="370" y="730" as="targetPoint" />
            <Array as="points">
              <mxPoint x="480" y="545" />
              <mxPoint x="480" y="730" />
            </Array>
          </mxGeometry>
        </mxCell>
        <mxCell id="kacVF6ODEAaboOuCy7be-15" value="array[i].length &amp;lt;= 3?" style="rhombus;whiteSpace=wrap;html=1;" vertex="1" parent="1">
          <mxGeometry x="310" y="490" width="120" height="110" as="geometry" />
        </mxCell>
        <mxCell id="kacVF6ODEAaboOuCy7be-16" style="edgeStyle=orthogonalEdgeStyle;rounded=0;orthogonalLoop=1;jettySize=auto;html=1;exitX=0.5;exitY=1;exitDx=0;exitDy=0;entryX=0;entryY=0.5;entryDx=0;entryDy=0;" edge="1" parent="1" source="kacVF6ODEAaboOuCy7be-17" target="kacVF6ODEAaboOuCy7be-12">
          <mxGeometry relative="1" as="geometry">
            <mxPoint x="190" y="580" as="targetPoint" />
            <Array as="points">
              <mxPoint x="370" y="730" />
              <mxPoint x="190" y="730" />
              <mxPoint x="190" y="430" />
            </Array>
          </mxGeometry>
        </mxCell>
        <mxCell id="kacVF6ODEAaboOuCy7be-17" value="count = count + 1" style="rounded=0;whiteSpace=wrap;html=1;" vertex="1" parent="1">
          <mxGeometry x="310" y="640" width="120" height="50" as="geometry" />
        </mxCell>
        <mxCell id="kacVF6ODEAaboOuCy7be-18" value="No" style="text;html=1;align=center;verticalAlign=middle;resizable=0;points=[];autosize=1;strokeColor=none;fillColor=none;" vertex="1" parent="1">
          <mxGeometry x="430" y="550" width="40" height="30" as="geometry" />
        </mxCell>
        <mxCell id="kacVF6ODEAaboOuCy7be-19" value="Yes" style="text;html=1;align=center;verticalAlign=middle;resizable=0;points=[];autosize=1;strokeColor=none;fillColor=none;" vertex="1" parent="1">
          <mxGeometry x="360" y="690" width="40" height="30" as="geometry" />
        </mxCell>
        <mxCell id="kacVF6ODEAaboOuCy7be-20" value="" style="edgeStyle=orthogonalEdgeStyle;rounded=0;orthogonalLoop=1;jettySize=auto;html=1;" edge="1" parent="1" source="kacVF6ODEAaboOuCy7be-21" target="kacVF6ODEAaboOuCy7be-23">
          <mxGeometry relative="1" as="geometry" />
        </mxCell>
        <mxCell id="kacVF6ODEAaboOuCy7be-21" value="result.Length = count" style="whiteSpace=wrap;html=1;" vertex="1" parent="1">
          <mxGeometry x="600" y="490" width="120" height="60" as="geometry" />
        </mxCell>
        <mxCell id="kacVF6ODEAaboOuCy7be-22" value="" style="edgeStyle=orthogonalEdgeStyle;rounded=0;orthogonalLoop=1;jettySize=auto;html=1;" edge="1" parent="1" source="kacVF6ODEAaboOuCy7be-23" target="kacVF6ODEAaboOuCy7be-26">
          <mxGeometry relative="1" as="geometry" />
        </mxCell>
        <mxCell id="kacVF6ODEAaboOuCy7be-23" value="j = 0" style="whiteSpace=wrap;html=1;" vertex="1" parent="1">
          <mxGeometry x="600" y="610" width="120" height="60" as="geometry" />
        </mxCell>
        <mxCell id="kacVF6ODEAaboOuCy7be-24" value="" style="edgeStyle=orthogonalEdgeStyle;rounded=0;orthogonalLoop=1;jettySize=auto;html=1;" edge="1" parent="1" source="kacVF6ODEAaboOuCy7be-26" target="kacVF6ODEAaboOuCy7be-29">
          <mxGeometry relative="1" as="geometry" />
        </mxCell>
        <mxCell id="kacVF6ODEAaboOuCy7be-25" value="" style="edgeStyle=orthogonalEdgeStyle;rounded=0;orthogonalLoop=1;jettySize=auto;html=1;" edge="1" parent="1" source="kacVF6ODEAaboOuCy7be-26" target="kacVF6ODEAaboOuCy7be-34">
          <mxGeometry relative="1" as="geometry" />
        </mxCell>
        <mxCell id="kacVF6ODEAaboOuCy7be-26" value="i = 0; N - 1; 1" style="shape=hexagon;perimeter=hexagonPerimeter2;whiteSpace=wrap;html=1;fixedSize=1;" vertex="1" parent="1">
          <mxGeometry x="600" y="710" width="120" height="60" as="geometry" />
        </mxCell>
        <mxCell id="kacVF6ODEAaboOuCy7be-27" value="" style="edgeStyle=orthogonalEdgeStyle;rounded=0;orthogonalLoop=1;jettySize=auto;html=1;" edge="1" parent="1" source="kacVF6ODEAaboOuCy7be-29" target="kacVF6ODEAaboOuCy7be-31">
          <mxGeometry relative="1" as="geometry" />
        </mxCell>
        <mxCell id="kacVF6ODEAaboOuCy7be-28" style="edgeStyle=orthogonalEdgeStyle;rounded=0;orthogonalLoop=1;jettySize=auto;html=1;exitX=1;exitY=0.5;exitDx=0;exitDy=0;" edge="1" parent="1" source="kacVF6ODEAaboOuCy7be-29">
          <mxGeometry relative="1" as="geometry">
            <mxPoint x="660" y="1050" as="targetPoint" />
            <Array as="points">
              <mxPoint x="740" y="885" />
              <mxPoint x="740" y="1050" />
            </Array>
          </mxGeometry>
        </mxCell>
        <mxCell id="kacVF6ODEAaboOuCy7be-29" value="array[i].Length &amp;lt;= 3?" style="rhombus;whiteSpace=wrap;html=1;" vertex="1" parent="1">
          <mxGeometry x="600" y="820" width="120" height="130" as="geometry" />
        </mxCell>
        <mxCell id="kacVF6ODEAaboOuCy7be-30" style="edgeStyle=orthogonalEdgeStyle;rounded=0;orthogonalLoop=1;jettySize=auto;html=1;exitX=0.5;exitY=1;exitDx=0;exitDy=0;entryX=0;entryY=0.5;entryDx=0;entryDy=0;" edge="1" parent="1" source="kacVF6ODEAaboOuCy7be-31" target="kacVF6ODEAaboOuCy7be-26">
          <mxGeometry relative="1" as="geometry">
            <mxPoint x="510" y="740" as="targetPoint" />
            <Array as="points">
              <mxPoint x="660" y="1050" />
              <mxPoint x="510" y="1050" />
              <mxPoint x="510" y="740" />
            </Array>
          </mxGeometry>
        </mxCell>
        <mxCell id="kacVF6ODEAaboOuCy7be-31" value="result[j] = array[i]&lt;br&gt;j = j + 1" style="whiteSpace=wrap;html=1;" vertex="1" parent="1">
          <mxGeometry x="600" y="980" width="120" height="50" as="geometry" />
        </mxCell>
        <mxCell id="kacVF6ODEAaboOuCy7be-32" value="Yes" style="text;html=1;align=center;verticalAlign=middle;resizable=0;points=[];autosize=1;strokeColor=none;fillColor=none;" vertex="1" parent="1">
          <mxGeometry x="650" y="945" width="40" height="30" as="geometry" />
        </mxCell>
        <mxCell id="kacVF6ODEAaboOuCy7be-33" value="No" style="text;html=1;align=center;verticalAlign=middle;resizable=0;points=[];autosize=1;strokeColor=none;fillColor=none;" vertex="1" parent="1">
          <mxGeometry x="710" y="885" width="40" height="30" as="geometry" />
        </mxCell>
        <mxCell id="kacVF6ODEAaboOuCy7be-34" value="Print result" style="shape=document;whiteSpace=wrap;html=1;boundedLbl=1;" vertex="1" parent="1">
          <mxGeometry x="730" y="1070" width="120" height="80" as="geometry" />
        </mxCell>
      </root>
    </mxGraphModel>
  </diagram>
</mxfile>
